<?xml version="1.0" encoding="utf-8"?>
<!-- Generator: Adobe Illustrator 18.1.1, SVG Export Plug-In . SVG Version: 6.00 Build 0)  -->
<svg version="1.1" id="Layer_1" xmlns="http://www.w3.org/2000/svg" xmlns:xlink="http://www.w3.org/1999/xlink" x="0px" y="0px"
	 viewBox="0 0 121.6 41" enable-background="new 0 0 121.6 41" xml:space="preserve">
<rect x="1.5" y="1.5" fill="#FFFFFF" stroke="#D4D5D5" stroke-miterlimit="10" width="118.6" height="38"/>
<g>
	<g enable-background="new    ">
		<path fill="#7C7F80" d="M67.1,11.4c-0.7,0-1.3,0.2-1.7,0.7c-0.4,0.5-0.6,1.2-0.6,2.1c0,0.9,0.2,1.6,0.6,2.1
			c0.4,0.5,0.9,0.7,1.7,0.7c0.3,0,0.6,0,0.9-0.1c0.3-0.1,0.6-0.1,0.9-0.2v1.1c-0.6,0.2-1.3,0.3-2,0.3c-1.1,0-1.9-0.3-2.5-1
			c-0.6-0.7-0.9-1.6-0.9-2.9c0-0.8,0.1-1.5,0.4-2c0.3-0.6,0.7-1,1.2-1.3c0.5-0.3,1.2-0.5,1.9-0.5c0.8,0,1.5,0.2,2.1,0.5l-0.4,1
			c-0.3-0.1-0.5-0.2-0.8-0.3C67.7,11.4,67.4,11.4,67.1,11.4z"/>
		<path fill="#7C7F80" d="M74,17.9l-0.2-0.8h0c-0.3,0.3-0.5,0.6-0.8,0.7C72.6,18,72.2,18,71.8,18c-0.6,0-1-0.2-1.3-0.5
			c-0.3-0.3-0.5-0.7-0.5-1.3c0-0.6,0.2-1,0.7-1.3c0.4-0.3,1.1-0.5,2-0.5l1,0v-0.3c0-0.4-0.1-0.6-0.3-0.8c-0.2-0.2-0.4-0.3-0.8-0.3
			c-0.3,0-0.6,0-0.8,0.1c-0.3,0.1-0.5,0.2-0.8,0.3l-0.4-0.9c0.3-0.2,0.6-0.3,1-0.4s0.7-0.1,1-0.1c0.7,0,1.3,0.2,1.6,0.5
			c0.4,0.3,0.6,0.8,0.6,1.5v3.8H74z M72.2,17.1c0.4,0,0.8-0.1,1.1-0.4c0.3-0.2,0.4-0.6,0.4-1v-0.5l-0.7,0c-0.6,0-1,0.1-1.2,0.3
			c-0.3,0.2-0.4,0.4-0.4,0.8c0,0.3,0.1,0.4,0.2,0.6C71.7,17,71.9,17.1,72.2,17.1z"/>
		<path fill="#7C7F80" d="M80.3,16.3c0,0.6-0.2,1-0.6,1.3S78.8,18,78,18c-0.8,0-1.4-0.1-1.8-0.3v-1c0.7,0.3,1.3,0.5,1.9,0.5
			c0.7,0,1.1-0.2,1.1-0.7c0-0.1,0-0.3-0.1-0.4s-0.2-0.2-0.4-0.3s-0.4-0.2-0.8-0.3c-0.7-0.3-1.1-0.5-1.3-0.8c-0.2-0.3-0.3-0.6-0.3-1
			c0-0.5,0.2-0.9,0.6-1.1c0.4-0.3,0.9-0.4,1.6-0.4c0.7,0,1.3,0.1,1.9,0.4l-0.4,0.9c-0.6-0.3-1.1-0.4-1.5-0.4c-0.6,0-1,0.2-1,0.5
			c0,0.2,0.1,0.3,0.2,0.5c0.2,0.1,0.5,0.3,1.1,0.5c0.5,0.2,0.8,0.3,1,0.5s0.4,0.3,0.5,0.5C80.3,15.8,80.3,16,80.3,16.3z"/>
		<path fill="#7C7F80" d="M86.6,17.9h-1.2v-3.5c0-0.4-0.1-0.8-0.3-1c-0.2-0.2-0.5-0.3-0.8-0.3c-0.5,0-0.9,0.2-1.1,0.5
			c-0.2,0.3-0.4,0.8-0.4,1.5v2.8h-1.2v-8h1.2v2c0,0.3,0,0.7-0.1,1h0.1c0.2-0.3,0.4-0.5,0.7-0.6c0.3-0.2,0.6-0.2,1-0.2
			c1.4,0,2.1,0.7,2.1,2.1V17.9z"/>
		<path fill="#7C7F80" d="M96.1,15.1c0,0.9-0.2,1.6-0.7,2.2c-0.5,0.5-1.1,0.8-2,0.8c-0.5,0-1-0.1-1.4-0.4s-0.7-0.6-0.9-1
			c-0.2-0.4-0.3-1-0.3-1.6c0-0.9,0.2-1.6,0.7-2.2c0.5-0.5,1.1-0.8,2-0.8c0.8,0,1.5,0.3,1.9,0.8C95.8,13.5,96.1,14.2,96.1,15.1z
			 M91.9,15.1c0,1.3,0.5,2,1.5,2c1,0,1.4-0.7,1.4-2c0-1.3-0.5-1.9-1.4-1.9c-0.5,0-0.9,0.2-1.1,0.5C92,14,91.9,14.5,91.9,15.1z"/>
		<path fill="#7C7F80" d="M102.4,17.9h-1.2v-3.5c0-0.4-0.1-0.8-0.3-1c-0.2-0.2-0.5-0.3-0.8-0.3c-0.5,0-0.9,0.2-1.1,0.5
			s-0.4,0.8-0.4,1.5v2.8h-1.2v-5.7h0.9l0.2,0.7h0.1c0.2-0.3,0.4-0.5,0.7-0.6c0.3-0.1,0.7-0.2,1-0.2c1.4,0,2,0.7,2,2.1V17.9z"/>
		<path fill="#7C7F80" d="M70,26.1c0,1.2-0.3,2.2-1,2.8c-0.7,0.7-1.7,1-3,1h-2.1v-7.5h2.3c1.2,0,2.1,0.3,2.8,1S70,25,70,26.1z
			 M68.7,26.2c0-1.8-0.8-2.7-2.5-2.7h-1.1v5.4H66C67.8,28.9,68.7,28,68.7,26.2z"/>
		<path fill="#7C7F80" d="M74,30c-0.9,0-1.6-0.3-2.1-0.8c-0.5-0.5-0.7-1.2-0.7-2.1c0-0.9,0.2-1.7,0.7-2.2c0.5-0.5,1.1-0.8,1.9-0.8
			c0.7,0,1.3,0.2,1.8,0.7c0.4,0.5,0.7,1.1,0.7,1.9v0.7h-3.8c0,0.6,0.2,1,0.4,1.3c0.3,0.3,0.7,0.4,1.2,0.4c0.3,0,0.6,0,0.9-0.1
			c0.3-0.1,0.6-0.2,0.9-0.3v1c-0.3,0.1-0.6,0.2-0.9,0.3C74.7,30,74.4,30,74,30z M73.7,25.1c-0.4,0-0.7,0.1-0.9,0.4
			c-0.2,0.2-0.4,0.6-0.4,1.1H75c0-0.5-0.1-0.8-0.3-1.1S74.1,25.1,73.7,25.1z"/>
		<path fill="#7C7F80" d="M78.7,29.9h-1.2v-8h1.2V29.9z"/>
		<path fill="#7C7F80" d="M80.4,22.8c0-0.2,0.1-0.4,0.2-0.5c0.1-0.1,0.3-0.2,0.5-0.2c0.2,0,0.4,0.1,0.5,0.2c0.1,0.1,0.2,0.3,0.2,0.5
			c0,0.2-0.1,0.4-0.2,0.5c-0.1,0.1-0.3,0.2-0.5,0.2c-0.2,0-0.4-0.1-0.5-0.2C80.5,23.1,80.4,23,80.4,22.8z M81.7,29.9h-1.2v-5.7h1.2
			V29.9z"/>
		<path fill="#7C7F80" d="M84.7,29.9l-2.2-5.7h1.3l1.2,3.3c0.2,0.6,0.3,1,0.4,1.3h0c0-0.2,0.1-0.7,0.4-1.3l1.2-3.3h1.3L86,29.9H84.7
			z"/>
		<path fill="#7C7F80" d="M91.5,30c-0.9,0-1.6-0.3-2.1-0.8c-0.5-0.5-0.7-1.2-0.7-2.1c0-0.9,0.2-1.7,0.7-2.2c0.5-0.5,1.1-0.8,1.9-0.8
			c0.7,0,1.3,0.2,1.8,0.7c0.4,0.5,0.7,1.1,0.7,1.9v0.7h-3.8c0,0.6,0.2,1,0.4,1.3c0.3,0.3,0.7,0.4,1.2,0.4c0.3,0,0.6,0,0.9-0.1
			c0.3-0.1,0.6-0.2,0.9-0.3v1c-0.3,0.1-0.6,0.2-0.9,0.3C92.2,30,91.9,30,91.5,30z M91.3,25.1c-0.4,0-0.7,0.1-0.9,0.4
			c-0.2,0.2-0.4,0.6-0.4,1.1h2.6c0-0.5-0.1-0.8-0.3-1.1S91.7,25.1,91.3,25.1z"/>
		<path fill="#7C7F80" d="M97.9,24.2c0.2,0,0.4,0,0.6,0.1l-0.1,1.1c-0.2,0-0.3-0.1-0.5-0.1c-0.5,0-0.9,0.2-1.2,0.5s-0.4,0.7-0.4,1.2
			v3h-1.2v-5.7H96l0.2,1h0.1c0.2-0.3,0.4-0.6,0.7-0.8S97.6,24.2,97.9,24.2z"/>
		<path fill="#7C7F80" d="M98.7,24.3h1.3l1.2,3.2c0.2,0.5,0.3,0.9,0.3,1.3h0c0-0.2,0.1-0.4,0.2-0.7c0.1-0.3,0.5-1.5,1.3-3.8h1.3
			l-2.4,6.4c-0.4,1.2-1.2,1.8-2.2,1.8c-0.3,0-0.5,0-0.8-0.1v-1c0.2,0,0.4,0.1,0.6,0.1c0.6,0,1-0.3,1.2-1l0.2-0.5L98.7,24.3z"/>
	</g>
	<g>
		<g>
			<line fill="none" stroke="#1A4F69" stroke-width="0.5" stroke-miterlimit="10" x1="19.8" y1="15.2" x2="16.1" y2="15.2"/>
			<line fill="none" stroke="#1A4F69" stroke-width="0.5" stroke-miterlimit="10" x1="17.6" y1="18.2" x2="9.5" y2="18.2"/>
			<line fill="none" stroke="#1A4F69" stroke-width="0.5" stroke-miterlimit="10" x1="13.1" y1="15.2" x2="14.6" y2="15.2"/>
			<rect x="20.5" y="11.2" fill="#FFFFFF" width="33.4" height="19.3"/>
			<polyline fill="none" stroke="#1A4F69" stroke-width="0.5" stroke-miterlimit="10" points="20.9,23.8 20.9,10.8 54.3,10.8
				54.3,30.1 20.9,30.1 20.9,26 			"/>
			<path fill="#00BFBF" stroke="#1A4F69" stroke-width="0.5" stroke-linejoin="round" stroke-miterlimit="10" d="M48.3,26.4H26.8
				l0,0c0,0-0.7-2.2-2.1-2.2l0,0v-7.4l0,0c1.2,0,2.2-0.8,2.2-2.2l0,0h21.5c0,1.5,0.8,2.3,2.3,2.3v7.4l0,0
				C50.6,24.2,48.3,24.9,48.3,26.4L48.3,26.4z"/>
			<line fill="none" stroke="#1A4F69" stroke-width="0.5" stroke-miterlimit="10" x1="28.7" y1="20.4" x2="30.2" y2="20.4"/>
			<line fill="none" stroke="#1A4F69" stroke-width="0.5" stroke-miterlimit="10" x1="44.3" y1="20.4" x2="45.8" y2="20.4"/>
			<ellipse fill="#FFFFFF" stroke="#1A4F69" stroke-width="0.5" stroke-miterlimit="10" cx="37.5" cy="20.5" rx="4.1" ry="4.6"/>
			<line fill="none" stroke="#1A4F69" stroke-width="0.5" stroke-miterlimit="10" x1="22.8" y1="23.4" x2="13.1" y2="23.4"/>
		</g>
		<g>
			<g>
				<path fill="#00BFBF" d="M35.8,17.6h3.7l0,0c-0.2,0.3-0.3,0.5-0.4,0.5h-1c0.1,0.1,0.2,0.3,0.3,0.6h1l0,0
					c-0.3,0.3-0.3,0.5-0.3,0.5h-0.7c0,0.2-0.1,0.4-0.3,0.7c-0.2,0.3-0.4,0.5-0.6,0.5c-0.3,0.2-0.7,0.3-1,0.3l0,0
					c0,0,0.1,0.1,0.3,0.3l1.8,2.2v0.1l0,0h-0.8c-1.4-1.7-2.2-2.5-2.2-2.5v-0.5l0,0c0.1,0,0.3,0,0.5,0c0.8,0,1.3-0.3,1.5-0.8
					c0-0.1,0.1-0.1,0.1-0.3h-2.2l0,0c0.3-0.3,0.4-0.5,0.4-0.5h1.8l0,0c-0.1-0.2-0.3-0.4-0.6-0.5c-0.2-0.1-0.4-0.1-0.5-0.1h-1l0,0
					C35.7,17.7,35.8,17.6,35.8,17.6z"/>
			</g>
		</g>
	</g>
</g>
</svg>
