<?xml version="1.0" encoding="utf-8"?>
<!-- Generator: Adobe Illustrator 22.0.1, SVG Export Plug-In . SVG Version: 6.00 Build 0)  -->
<svg version="1.1" id="Layer_1" xmlns="http://www.w3.org/2000/svg" xmlns:xlink="http://www.w3.org/1999/xlink" x="0px" y="0px"
	 viewBox="0 0 37 108" enable-background="new 0 0 37 108" xml:space="preserve">
<g>
	<g opacity="0.2">
		<polygon fill="#FFFFFF" points="37,108.3 37,-0.3 0,-0.3 0,108.3 18.6,95.9 		"/>
	</g>
	<g opacity="0.2">
		<polygon fill="none" stroke="#D3D4D5" stroke-miterlimit="10" points="37,108.3 37,-0.3 0,-0.3 0,108.3 18.6,95.9 		"/>
	</g>
	<g opacity="0.3">
		
			<linearGradient id="SVGID_1_" gradientUnits="userSpaceOnUse" x1="1081.6732" y1="-6736.7529" x2="1190.2527" y2="-6736.7529" gradientTransform="matrix(4.489700e-11 -1 1 4.489700e-11 6755.2529 1189.963)">
			<stop  offset="0" style="stop-color:#FCBF81"/>
			<stop  offset="1" style="stop-color:#F59097"/>
		</linearGradient>
		<polygon fill="url(#SVGID_1_)" points="37,108.3 37,-0.3 0,-0.3 0,108.3 18.6,95.9 		"/>
	</g>
	<g>
		<g>
			<rect x="10" y="25.7" fill="#FFFFFF" width="17.1" height="14.1"/>
		</g>
		<g>
			<rect x="10" y="37.9" fill="#F06C85" width="17.1" height="1.9"/>
		</g>
		<g>
			
				<rect x="17.4" y="25.7" fill="#E8E9E9" stroke="#1A5069" stroke-width="0.5662" stroke-miterlimit="10" width="2.2" height="14.1"/>
		</g>
		<g>
			<path fill="#1A5069" d="M27.4,40.1H9.6V25.3h17.8V40.1z M10.3,39.4h16.3V26H10.3V39.4z"/>
		</g>
		<g>
			<rect x="8.5" y="21.9" fill="#F06C85" width="20.1" height="3.7"/>
		</g>
		<g>
			<rect x="17" y="21.9" fill="#F4F4F5" stroke="#1A5069" stroke-width="0.5662" stroke-miterlimit="10" width="3" height="3.7"/>
		</g>
		<g>
			<path fill="#1A5069" d="M28.9,26H8.1v-4.5h20.8V26z M8.8,25.3h19.3v-3H8.8V25.3z"/>
		</g>
		<g>
			<path fill="#1A5069" d="M18.9,21.9l-0.4,0c-0.2,0-2.1,0-2.9-0.9c-0.6-0.6-1.2-1.9-0.4-2.8c0.3-0.3,0.7-0.5,1.1-0.5
				c0.7,0,1.4,0.5,1.7,0.8c0.8,0.8,0.8,2.7,0.9,2.9L18.9,21.9z M16.3,18.6c-0.2,0-0.4,0.1-0.5,0.3c-0.6,0.6,0.2,1.5,0.4,1.7
				c0.4,0.4,1.3,0.6,1.9,0.6c-0.1-0.6-0.2-1.6-0.6-2C17.1,18.8,16.7,18.6,16.3,18.6z"/>
		</g>
		<g>
			<path fill="#1A5069" d="M18.1,21.9l0-0.4c0-0.2,0-2.1,0.9-2.9c0.3-0.3,0.9-0.8,1.7-0.8c0.4,0,0.8,0.2,1.1,0.5
				c0.9,0.9,0.2,2.2-0.4,2.8c-0.8,0.8-2.7,0.9-2.9,0.9L18.1,21.9z M20.7,18.6c-0.3,0-0.8,0.2-1.2,0.6c-0.4,0.4-0.6,1.3-0.6,2
				c0.6-0.1,1.5-0.2,1.9-0.6c0.2-0.2,0.9-1.2,0.4-1.7C21,18.7,20.9,18.6,20.7,18.6z"/>
		</g>
	</g>
	<g>
		<path fill="#1A5069" d="M6.3,53v3.2H5v-8h2.3c1,0,1.8,0.2,2.3,0.6c0.5,0.4,0.7,1,0.7,1.8c0,1-0.5,1.7-1.6,2.1l2.3,3.6H9.5L7.6,53
			H6.3z M6.3,51.9h0.9c0.6,0,1.1-0.1,1.3-0.3S9,51,9,50.6c0-0.5-0.1-0.8-0.4-1c-0.3-0.2-0.7-0.3-1.3-0.3H6.3V51.9z"/>
		<path fill="#1A5069" d="M14.7,56.3c-0.9,0-1.7-0.3-2.2-0.8c-0.5-0.6-0.8-1.3-0.8-2.3c0-1,0.2-1.8,0.7-2.3c0.5-0.6,1.2-0.9,2-0.9
			c0.8,0,1.4,0.2,1.9,0.7c0.5,0.5,0.7,1.2,0.7,2v0.7H13c0,0.6,0.2,1,0.5,1.4c0.3,0.3,0.7,0.5,1.3,0.5c0.4,0,0.7,0,1-0.1
			c0.3-0.1,0.6-0.2,1-0.3v1.1c-0.3,0.2-0.6,0.3-1,0.3C15.5,56.3,15.1,56.3,14.7,56.3z M14.5,51c-0.4,0-0.7,0.1-1,0.4
			c-0.2,0.3-0.4,0.6-0.4,1.1h2.8c0-0.5-0.1-0.9-0.4-1.1C15.2,51.1,14.9,51,14.5,51z"/>
		<path fill="#1A5069" d="M21.6,51.1h-1.5v5.1h-1.3v-5.1h-1v-0.6l1-0.4v-0.4c0-0.7,0.2-1.3,0.5-1.6c0.3-0.3,0.9-0.5,1.5-0.5
			c0.5,0,0.9,0.1,1.3,0.2l-0.3,1c-0.3-0.1-0.6-0.2-0.9-0.2c-0.3,0-0.5,0.1-0.6,0.3c-0.1,0.2-0.2,0.5-0.2,0.8v0.4h1.5V51.1z"/>
		<path fill="#1A5069" d="M25.3,56.3c-0.9,0-1.7-0.3-2.2-0.8c-0.5-0.6-0.8-1.3-0.8-2.3c0-1,0.2-1.8,0.7-2.3c0.5-0.6,1.2-0.9,2-0.9
			c0.8,0,1.4,0.2,1.9,0.7c0.5,0.5,0.7,1.2,0.7,2v0.7h-4.1c0,0.6,0.2,1,0.5,1.4c0.3,0.3,0.7,0.5,1.3,0.5c0.4,0,0.7,0,1-0.1
			c0.3-0.1,0.6-0.2,1-0.3v1.1c-0.3,0.2-0.6,0.3-1,0.3C26.1,56.3,25.7,56.3,25.3,56.3z M25.1,51c-0.4,0-0.7,0.1-1,0.4
			c-0.2,0.3-0.4,0.6-0.4,1.1h2.8c0-0.5-0.1-0.9-0.4-1.1C25.8,51.1,25.5,51,25.1,51z"/>
		<path fill="#1A5069" d="M32.2,50c0.3,0,0.5,0,0.6,0.1l-0.1,1.2c-0.2,0-0.4-0.1-0.6-0.1c-0.5,0-0.9,0.2-1.3,0.5
			c-0.3,0.3-0.5,0.8-0.5,1.3v3.2h-1.3v-6.1h1l0.2,1.1h0.1c0.2-0.4,0.5-0.7,0.8-0.9C31.5,50.1,31.8,50,32.2,50z"/>
		<path fill="#1A5069" d="M13.4,69.5c0-0.5,0.1-0.9,0.4-1.3c0.2-0.4,0.7-0.7,1.3-1.1c-0.3-0.4-0.6-0.8-0.7-1
			c-0.1-0.3-0.2-0.6-0.2-0.9c0-0.6,0.2-1,0.6-1.3c0.4-0.3,0.9-0.5,1.6-0.5c0.7,0,1.2,0.2,1.5,0.5c0.4,0.3,0.6,0.7,0.6,1.3
			c0,0.4-0.1,0.8-0.4,1.1c-0.2,0.3-0.7,0.7-1.2,1l1.9,1.8c0.3-0.4,0.5-1,0.7-1.7h1.3c-0.3,1-0.7,1.9-1.2,2.5l1.7,1.6h-1.7l-0.8-0.8
			c-0.4,0.3-0.8,0.5-1.2,0.7c-0.4,0.2-0.9,0.2-1.4,0.2c-0.8,0-1.5-0.2-2-0.6C13.6,70.7,13.4,70.2,13.4,69.5z M16.2,70.6
			c0.7,0,1.2-0.2,1.7-0.6l-2.1-2.1c-0.4,0.2-0.7,0.5-0.8,0.7c-0.1,0.2-0.2,0.5-0.2,0.7c0,0.4,0.1,0.7,0.4,0.9
			C15.4,70.5,15.7,70.6,16.2,70.6z M15.3,65.3c0,0.2,0.1,0.4,0.2,0.7c0.1,0.2,0.3,0.4,0.5,0.7c0.4-0.2,0.7-0.5,0.9-0.7
			c0.2-0.2,0.3-0.4,0.3-0.7c0-0.2-0.1-0.4-0.2-0.6c-0.2-0.1-0.4-0.2-0.6-0.2c-0.3,0-0.5,0.1-0.7,0.2C15.4,64.8,15.3,65,15.3,65.3z"
			/>
		<path fill="#1A5069" d="M11.7,87H7.1v-8h4.5V80H8.5v2.2h3v1.1h-3v2.5h3.2V87z"/>
		<path fill="#1A5069" d="M17.1,87l-0.3-0.8h0c-0.3,0.4-0.6,0.6-0.9,0.8c-0.3,0.1-0.7,0.2-1.1,0.2c-0.6,0-1.1-0.2-1.4-0.5
			c-0.3-0.3-0.5-0.8-0.5-1.4c0-0.6,0.2-1.1,0.7-1.4c0.5-0.3,1.2-0.5,2.1-0.5l1.1,0v-0.3c0-0.4-0.1-0.7-0.3-0.9
			c-0.2-0.2-0.5-0.3-0.8-0.3c-0.3,0-0.6,0-0.9,0.1c-0.3,0.1-0.6,0.2-0.8,0.3l-0.4-0.9c0.3-0.2,0.7-0.3,1.1-0.4s0.8-0.1,1.1-0.1
			c0.8,0,1.4,0.2,1.8,0.5c0.4,0.3,0.6,0.9,0.6,1.6V87H17.1z M15.2,86.1c0.5,0,0.8-0.1,1.1-0.4s0.4-0.6,0.4-1.1v-0.5l-0.8,0
			c-0.6,0-1.1,0.1-1.3,0.3c-0.3,0.2-0.4,0.5-0.4,0.8c0,0.3,0.1,0.5,0.2,0.6C14.6,86,14.9,86.1,15.2,86.1z"/>
		<path fill="#1A5069" d="M22.9,80.8c0.3,0,0.5,0,0.6,0.1L23.4,82c-0.2,0-0.4-0.1-0.6-0.1c-0.5,0-0.9,0.2-1.3,0.5
			c-0.3,0.3-0.5,0.8-0.5,1.3V87h-1.3v-6.1h1L21,82h0.1c0.2-0.4,0.5-0.7,0.8-0.9C22.2,80.9,22.5,80.8,22.9,80.8z"/>
		<path fill="#1A5069" d="M30,87h-1.3v-3.7c0-0.5-0.1-0.8-0.3-1.1c-0.2-0.2-0.5-0.3-0.9-0.3c-0.5,0-0.9,0.2-1.2,0.5
			c-0.3,0.3-0.4,0.9-0.4,1.6v3h-1.3v-6.1h1l0.2,0.8h0.1c0.2-0.3,0.4-0.5,0.8-0.7c0.3-0.2,0.7-0.2,1.1-0.2c1.5,0,2.2,0.7,2.2,2.2V87z
			"/>
	</g>
</g>
</svg>
