<svg version="1.1" id="Layer_1" xmlns="http://www.w3.org/2000/svg" xmlns:xlink="http://www.w3.org/1999/xlink" x="0px" y="0px" viewBox="0 0 32 32" enable-background="new 0 0 32 32" xml:space="preserve">
<rect y="0" fill="none" width="32" height="32"></rect>
                                            <g>
                                                <path fill="none" stroke="#7C7F80" stroke-linecap="square" stroke-linejoin="round" stroke-miterlimit="10" d="M27.6,13
		c-0.9-4-3.8-7.4-7.9-8.8C13.9,2.3,7.8,5,5.1,10.7l-2-0.7l1.7,6.2l5-3.9l-2-0.7c2-3.9,6.6-6.1,10.9-4.7 M4.6,21.4
		c1,3.8,3.9,6.8,7.8,8.1c5.7,1.9,11.9-1.2,14.4-6.3L29,24l-1.7-6.2l-5,3.9l1.9,0.6c-2.1,3.9-6.6,5.9-10.8,4.5"></path>
                                            </g>
                                            <g>
                                                <path fill="#7C7F80" d="M13.9,20.5h-1.1v-4.6c0-0.5,0-1,0-1.3c-0.1,0.1-0.2,0.2-0.3,0.3c-0.1,0.1-0.5,0.4-1.1,0.9L10.8,15l2.1-1.7
		h1V20.5z"></path>
                                                <path fill="#7C7F80" d="M21.3,18.9h-1v1.6h-1.1v-1.6H16V18l3.3-4.7h1.1v4.6h1V18.9z M19.2,17.9v-1.8c0-0.6,0-1.2,0-1.6h0
		c-0.1,0.2-0.2,0.5-0.4,0.8L17,17.9H19.2z"></path>
                                            </g>
</svg>