<?xml version="1.0" encoding="utf-8"?>
<!-- Generator: Adobe Illustrator 18.1.1, SVG Export Plug-In . SVG Version: 6.00 Build 0)  -->
<svg version="1.1" id="Layer_1" xmlns="http://www.w3.org/2000/svg" xmlns:xlink="http://www.w3.org/1999/xlink" x="0px" y="0px"
	 viewBox="0 0 91.6 41" enable-background="new 0 0 91.6 41" xml:space="preserve">
<rect x="1.5" y="1.5" fill="#FFFFFF" stroke="#D4D5D5" stroke-miterlimit="10" width="88.6" height="38"/>
<g>
	<g>
		<g enable-background="new    ">
			<path fill="#7C7F80" d="M44,18.3h-1.5l-3.7-6h0l0,0.3c0,0.6,0.1,1.2,0.1,1.7v3.9h-1.1v-7.5h1.5l3.7,5.9h0c0-0.1,0-0.4,0-0.9
				s0-0.9,0-1.2v-3.9H44V18.3z"/>
			<path fill="#7C7F80" d="M48.3,18.5c-0.9,0-1.6-0.3-2.1-0.8s-0.7-1.2-0.7-2.1c0-0.9,0.2-1.7,0.7-2.2c0.5-0.5,1.1-0.8,1.9-0.8
				c0.7,0,1.3,0.2,1.8,0.7c0.4,0.5,0.7,1.1,0.7,1.9v0.7h-3.8c0,0.6,0.2,1,0.4,1.3c0.3,0.3,0.7,0.4,1.2,0.4c0.3,0,0.6,0,0.9-0.1
				c0.3-0.1,0.6-0.2,0.9-0.3v1c-0.3,0.1-0.6,0.2-0.9,0.3C49,18.4,48.7,18.5,48.3,18.5z M48.1,13.5c-0.4,0-0.7,0.1-0.9,0.4
				c-0.2,0.2-0.4,0.6-0.4,1.1h2.6c0-0.5-0.1-0.8-0.3-1.1C48.7,13.6,48.4,13.5,48.1,13.5z"/>
			<path fill="#7C7F80" d="M54,17.5c0.3,0,0.6,0,0.9-0.1v0.9c-0.1,0.1-0.3,0.1-0.5,0.1c-0.2,0-0.4,0.1-0.7,0.1
				c-1.1,0-1.7-0.6-1.7-1.8v-3.1h-0.8v-0.5l0.8-0.4l0.4-1.2h0.7v1.3h1.6v0.9h-1.6v3c0,0.3,0.1,0.5,0.2,0.6
				C53.5,17.4,53.7,17.5,54,17.5z"/>
			<path fill="#7C7F80" d="M37.7,22.9h2.2c1,0,1.8,0.2,2.2,0.5c0.5,0.3,0.7,0.8,0.7,1.4c0,0.4-0.1,0.8-0.3,1.1
				c-0.2,0.3-0.6,0.5-1,0.5v0.1c0.5,0.1,0.9,0.3,1.2,0.6c0.2,0.3,0.4,0.7,0.4,1.2c0,0.7-0.2,1.2-0.7,1.6c-0.5,0.4-1.1,0.6-2,0.6
				h-2.7V22.9z M38.9,26h1.2c0.5,0,0.9-0.1,1.1-0.2c0.2-0.2,0.4-0.4,0.4-0.8c0-0.4-0.1-0.6-0.4-0.8s-0.7-0.2-1.2-0.2h-1.1V26z
				 M38.9,26.9v2.4h1.3c0.5,0,0.9-0.1,1.2-0.3c0.3-0.2,0.4-0.5,0.4-0.9c0-0.4-0.1-0.7-0.4-0.9c-0.3-0.2-0.7-0.3-1.2-0.3H38.9z"/>
			<path fill="#7C7F80" d="M48.1,30.3l-0.2-0.8h0c-0.3,0.3-0.5,0.6-0.8,0.7c-0.3,0.1-0.6,0.2-1.1,0.2c-0.6,0-1-0.2-1.3-0.5
				c-0.3-0.3-0.5-0.7-0.5-1.3c0-0.6,0.2-1,0.7-1.3c0.4-0.3,1.1-0.5,2-0.5l1,0v-0.3c0-0.4-0.1-0.6-0.3-0.8c-0.2-0.2-0.4-0.3-0.8-0.3
				c-0.3,0-0.6,0-0.8,0.1c-0.3,0.1-0.5,0.2-0.8,0.3l-0.4-0.9c0.3-0.2,0.6-0.3,1-0.4c0.4-0.1,0.7-0.1,1-0.1c0.7,0,1.3,0.2,1.6,0.5
				c0.4,0.3,0.6,0.8,0.6,1.5v3.8H48.1z M46.3,29.5c0.4,0,0.8-0.1,1.1-0.4c0.3-0.2,0.4-0.6,0.4-1v-0.5l-0.7,0c-0.6,0-1,0.1-1.2,0.3
				c-0.3,0.2-0.4,0.4-0.4,0.8c0,0.3,0.1,0.4,0.2,0.6C45.7,29.5,46,29.5,46.3,29.5z"/>
			<path fill="#7C7F80" d="M55.6,30.3h-1.2v-3.5c0-0.4-0.1-0.8-0.3-1c-0.2-0.2-0.5-0.3-0.8-0.3c-0.5,0-0.9,0.2-1.1,0.5
				c-0.2,0.3-0.4,0.8-0.4,1.5v2.8h-1.2v-5.7h0.9l0.2,0.7h0.1c0.2-0.3,0.4-0.5,0.7-0.6c0.3-0.1,0.7-0.2,1-0.2c1.4,0,2,0.7,2,2.1V30.3
				z"/>
			<path fill="#7C7F80" d="M58.4,27.4l0.7-0.9l1.7-1.8h1.4l-2.3,2.4l2.4,3.2h-1.4l-1.8-2.5l-0.7,0.5v1.9h-1.2v-8h1.2v3.9L58.4,27.4
				L58.4,27.4z"/>
			<path fill="#7C7F80" d="M63.2,23.2c0-0.2,0.1-0.4,0.2-0.5c0.1-0.1,0.3-0.2,0.5-0.2c0.2,0,0.4,0.1,0.5,0.2
				c0.1,0.1,0.2,0.3,0.2,0.5c0,0.2-0.1,0.4-0.2,0.5c-0.1,0.1-0.3,0.2-0.5,0.2c-0.2,0-0.4-0.1-0.5-0.2C63.3,23.5,63.2,23.4,63.2,23.2
				z M64.5,30.3h-1.2v-5.7h1.2V30.3z"/>
			<path fill="#7C7F80" d="M71.2,30.3H70v-3.5c0-0.4-0.1-0.8-0.3-1c-0.2-0.2-0.5-0.3-0.8-0.3c-0.5,0-0.9,0.2-1.1,0.5
				c-0.2,0.3-0.4,0.8-0.4,1.5v2.8h-1.2v-5.7h0.9l0.2,0.7h0.1c0.2-0.3,0.4-0.5,0.7-0.6c0.3-0.1,0.7-0.2,1-0.2c1.4,0,2,0.7,2,2.1V30.3
				z"/>
			<path fill="#7C7F80" d="M77.7,24.7v0.7l-1,0.2c0.1,0.1,0.2,0.3,0.2,0.4c0.1,0.2,0.1,0.4,0.1,0.6c0,0.6-0.2,1-0.6,1.4
				s-1,0.5-1.7,0.5c-0.2,0-0.3,0-0.5,0c-0.3,0.2-0.4,0.3-0.4,0.6c0,0.1,0.1,0.2,0.2,0.3c0.1,0.1,0.3,0.1,0.7,0.1h1
				c0.6,0,1.1,0.1,1.4,0.4c0.3,0.3,0.5,0.7,0.5,1.2c0,0.6-0.3,1.1-0.8,1.5c-0.5,0.3-1.3,0.5-2.3,0.5c-0.8,0-1.4-0.1-1.8-0.4
				c-0.4-0.3-0.6-0.7-0.6-1.2c0-0.3,0.1-0.6,0.3-0.9c0.2-0.2,0.5-0.4,0.9-0.5c-0.2-0.1-0.3-0.2-0.4-0.3c-0.1-0.2-0.2-0.3-0.2-0.5
				c0-0.2,0.1-0.4,0.2-0.5c0.1-0.1,0.3-0.3,0.5-0.4c-0.3-0.1-0.5-0.3-0.7-0.6c-0.2-0.3-0.3-0.6-0.3-1c0-0.6,0.2-1.1,0.6-1.4
				c0.4-0.3,0.9-0.5,1.7-0.5c0.2,0,0.3,0,0.5,0c0.2,0,0.3,0,0.4,0.1H77.7z M73.2,31.2c0,0.3,0.1,0.5,0.4,0.6c0.2,0.1,0.6,0.2,1,0.2
				c0.7,0,1.1-0.1,1.5-0.3c0.3-0.2,0.5-0.4,0.5-0.7c0-0.2-0.1-0.4-0.3-0.5s-0.5-0.2-1-0.2h-0.9c-0.3,0-0.6,0.1-0.8,0.2
				C73.3,30.7,73.2,31,73.2,31.2z M73.7,26.5c0,0.4,0.1,0.6,0.3,0.8c0.2,0.2,0.4,0.3,0.8,0.3c0.7,0,1-0.4,1-1.1
				c0-0.4-0.1-0.7-0.3-0.9c-0.2-0.2-0.4-0.3-0.8-0.3c-0.3,0-0.6,0.1-0.8,0.3S73.7,26.1,73.7,26.5z"/>
		</g>
	</g>
	<g>
		<g>
			<path fill="#FFFFFF" stroke="#2A5082" stroke-width="0.5" stroke-miterlimit="10" d="M23.8,17.6L23.8,17.6
				c-0.5-0.5-0.6-1.2-0.2-1.6l1.6-1.5c0.6-0.5,1.4-0.6,1.8-0.2l0.1,0.1c0.4,0.5,0.3,1.3-0.3,1.8l-1.6,1.5
				C24.8,18.1,24.2,18,23.8,17.6z"/>
			<path fill="#FFFFFF" stroke="#2A5082" stroke-width="0.5" stroke-miterlimit="10" d="M15.7,19.6l-2.1-0.8l-2.7,8.7
				c0.2,0.1,0.3,0.3,0.5,0.4c0.5,0.5,1,1,1.4,1.6l2.7,0.4c0.6-0.6,1-1.1,1.5-1.5c3.9,0.3,5.7-2.6,6.1-3.1
				C23.5,24.8,15.7,19.6,15.7,19.6z"/>
			<path fill="#E9EAEB" stroke="#2A5082" stroke-width="0.5" stroke-miterlimit="10" d="M23.7,25.6l-7.2,0c-0.7,0-1.4-0.6-1.4-1.4
				l0-14.1c0-0.7,0.6-1.4,1.4-1.4l7.2,0c0.7,0,1.4,0.6,1.4,1.4l0,14.1C25,25,24.4,25.6,23.7,25.6z"/>
			<rect x="15.1" y="10.7" fill="#FFFFFF" stroke="#2A5082" stroke-width="0.5" stroke-miterlimit="10" width="10" height="11.9"/>
			<path fill="#FFFFFF" stroke="#2A5082" stroke-width="0.5" stroke-miterlimit="10" d="M24.8,25.3L24.8,25.3
				c-0.5-0.4-0.7-1-0.4-1.2l1-1.2c0.4-0.4,1-0.5,1.4-0.1l0.1,0.1c0.4,0.4,0.5,1,0.1,1.4l-1,1.2C25.8,25.7,25.2,25.6,24.8,25.3z"/>
			<path fill="#FFFFFF" d="M15.3,19.5c0.4-1.2,0.6-2,0.7-3.4c0.1-0.8-0.3-1.5-0.6-2c-0.4-0.5-1.3-0.4-1.4,0.2
				c-0.8,2.5-0.9,3.2-1.4,4.5c-0.5,1.4-0.2,3.4-0.5,4c-0.1,0.1-1.9,2.5-2.4,3.2c0.5,0.3,1.7,0.8,2.1,1.2c0.5,0.5,1.1,1,1.5,1.6
				l0.4,0l2.4-2.5C17.1,23.2,16.2,20.7,15.3,19.5z"/>
			<path fill="none" stroke="#2A5082" stroke-width="0.5" stroke-miterlimit="10" d="M16.1,26.1c1-3,0.2-5.5-0.8-6.7
				c0.4-1.2,0.6-2,0.7-3.4c0.1-0.8-0.3-1.5-0.6-2c-0.4-0.5-1.3-0.4-1.4,0.2c-0.8,2.5-0.9,3.2-1.4,4.5c-0.5,1.4-0.2,3.4-0.5,4
				c-0.1,0.1-1.9,2.5-2.4,3.2c0.5,0.3,1.7,0.8,2.1,1.2c0.5,0.5,1.1,1,1.5,1.6l0.4,0"/>
			<polygon fill="#00BFBF" stroke="#1A4F69" stroke-width="0.5" stroke-miterlimit="10" points="10.3,24.2 8.3,26.3 14.1,32.2
				16.2,30.1 			"/>
			<path fill="#FFFFFF" stroke="#2A5082" stroke-width="0.5" stroke-miterlimit="10" d="M24.8,22.6L24.8,22.6
				c-0.5-0.5-0.7-1-0.4-1.3l1-1.2c0.4-0.4,1-0.5,1.5-0.1l0.1,0.1c0.4,0.4,0.5,1,0.1,1.5l-1,1.2C25.8,23.1,25.3,23,24.8,22.6z"/>
			<path fill="#FFFFFF" stroke="#2A5082" stroke-width="0.5" stroke-miterlimit="10" d="M24.8,20L24.8,20c-0.5-0.5-0.7-1-0.4-1.3
				l1-1.2c0.4-0.4,1-0.5,1.5-0.1l0.1,0.1c0.4,0.4,0.5,1,0.1,1.5l-1,1.2C25.8,20.4,25.3,20.4,24.8,20z"/>
			<line fill="none" stroke="#2A5082" stroke-width="0.5" stroke-miterlimit="10" x1="18.9" y1="24.1" x2="21.2" y2="24.1"/>
		</g>
		<g>
			<g>
				<path fill="#00BFBF" d="M18.7,14.3h3.1l0,0c-0.2,0.3-0.3,0.4-0.3,0.4h-0.8c0.1,0.1,0.2,0.3,0.2,0.5h0.9l0,0
					c-0.2,0.3-0.3,0.4-0.3,0.4h-0.5c0,0.2-0.1,0.3-0.2,0.5c-0.2,0.2-0.3,0.4-0.5,0.4c-0.3,0.2-0.6,0.2-0.9,0.2l0,0
					c0,0,0.1,0.1,0.2,0.3l1.5,1.8V19l0,0h-0.7c-1.2-1.4-1.8-2.1-1.8-2.1v-0.4l0,0c0.1,0,0.2,0,0.4,0c0.6,0,1.1-0.2,1.2-0.6
					c0-0.1,0.1-0.1,0.1-0.2h-1.8l0,0c0.2-0.3,0.3-0.4,0.3-0.4h1.4l0,0c-0.1-0.2-0.2-0.3-0.5-0.4c-0.2-0.1-0.3-0.1-0.4-0.1h-0.8l0,0
					C18.6,14.4,18.7,14.3,18.7,14.3z"/>
			</g>
		</g>
	</g>
</g>
</svg>
