<?xml version="1.0" encoding="utf-8"?>
<!-- Generator: Adobe Illustrator 18.1.1, SVG Export Plug-In . SVG Version: 6.00 Build 0)  -->
<svg version="1.1" id="Layer_1" xmlns="http://www.w3.org/2000/svg" xmlns:xlink="http://www.w3.org/1999/xlink" x="0px" y="0px"
	 viewBox="0 0 32 32" enable-background="new 0 0 32 32" xml:space="preserve">
<rect x="0" y="0" fill="none" width="32" height="32"/>
<g>
	<path fill="none" stroke="#7D7F80" stroke-miterlimit="10" d="M7.2,2.5c2,0,3.6,1.6,3.6,3.6c0,0.9-0.1,1.5-0.6,2.2
		c-0.5,0.8-3,4.4-3,4.4s-2.5-3.6-3-4.4C3.7,7.6,3.5,7,3.5,6.1C3.5,4.1,5.2,2.5,7.2,2.5z"/>
	<path fill="none" stroke="#7D7F80" stroke-miterlimit="10" d="M13.9,7.3h8.5c2.3,0,4.3,1.9,4.3,4.2l0,0c0,2.3-1.9,4.2-4.3,4.2H10.2
		C7.9,15.8,6,17.7,6,20l0,0c0,2.3,1.9,4.2,4.3,4.2h8.5"/>
	<path fill="none" stroke="#7D7F80" stroke-miterlimit="10" d="M24.8,18.8c2,0,3.6,1.6,3.6,3.6c0,0.9-0.1,1.5-0.6,2.2
		c-0.5,0.8-3,4.4-3,4.4s-2.5-3.6-3-4.4c-0.5-0.8-0.6-1.4-0.6-2.2C21.2,20.5,22.8,18.8,24.8,18.8z"/>
	<polyline fill="none" stroke="#7D7F80" stroke-miterlimit="10" points="16.3,4.9 13.9,7.3 16.3,9.8 	"/>
	<ellipse fill="none" stroke="#7D7F80" stroke-miterlimit="10" cx="7.2" cy="5.8" rx="1.1" ry="1.1"/>
	<ellipse fill="none" stroke="#7D7F80" stroke-miterlimit="10" cx="24.8" cy="22.3" rx="1.1" ry="1.1"/>
</g>
</svg>
